<svg width="520" height="356" viewBox="0 0 520 356" fill="none" xmlns="http://www.w3.org/2000/svg">
<path d="M0 0H520V356H0V0Z" fill="#262626"/>
<path d="M53.456 195V160.091H76.5696V166.176H60.8366V174.494H75.0355V180.58H60.8366V195H53.456ZM88.6591 160.091V195H81.3977V160.091H88.6591ZM101.942 195.494C100.271 195.494 98.7827 195.205 97.4759 194.625C96.169 194.034 95.1349 193.165 94.3736 192.017C93.6236 190.858 93.2486 189.415 93.2486 187.688C93.2486 186.233 93.5156 185.011 94.0497 184.023C94.5838 183.034 95.3111 182.239 96.2315 181.636C97.152 181.034 98.1974 180.58 99.3679 180.273C100.55 179.966 101.788 179.75 103.084 179.625C104.607 179.466 105.834 179.318 106.766 179.182C107.697 179.034 108.374 178.818 108.794 178.534C109.214 178.25 109.425 177.83 109.425 177.273V177.17C109.425 176.091 109.084 175.256 108.402 174.665C107.732 174.074 106.777 173.778 105.538 173.778C104.232 173.778 103.192 174.068 102.419 174.648C101.646 175.216 101.135 175.932 100.885 176.795L94.169 176.25C94.5099 174.659 95.1804 173.284 96.1804 172.125C97.1804 170.955 98.4702 170.057 100.05 169.432C101.641 168.795 103.482 168.477 105.572 168.477C107.027 168.477 108.419 168.648 109.749 168.989C111.089 169.33 112.277 169.858 113.311 170.574C114.357 171.29 115.18 172.21 115.783 173.335C116.385 174.449 116.686 175.784 116.686 177.341V195H109.8V191.369H109.595C109.175 192.188 108.612 192.909 107.908 193.534C107.203 194.148 106.357 194.631 105.368 194.983C104.379 195.324 103.237 195.494 101.942 195.494ZM104.021 190.483C105.089 190.483 106.033 190.273 106.851 189.852C107.669 189.42 108.311 188.841 108.777 188.114C109.243 187.386 109.476 186.562 109.476 185.642V182.864C109.249 183.011 108.936 183.148 108.538 183.273C108.152 183.386 107.714 183.494 107.226 183.597C106.737 183.687 106.249 183.773 105.76 183.852C105.271 183.92 104.828 183.983 104.43 184.04C103.578 184.165 102.834 184.364 102.197 184.636C101.561 184.909 101.067 185.278 100.714 185.744C100.362 186.199 100.186 186.767 100.186 187.449C100.186 188.438 100.544 189.193 101.26 189.716C101.987 190.227 102.908 190.483 104.021 190.483ZM134.115 205.364C131.763 205.364 129.746 205.04 128.064 204.392C126.393 203.756 125.064 202.886 124.075 201.784C123.087 200.682 122.445 199.443 122.149 198.068L128.865 197.165C129.07 197.688 129.393 198.176 129.837 198.631C130.28 199.085 130.865 199.449 131.592 199.722C132.331 200.006 133.229 200.148 134.286 200.148C135.865 200.148 137.166 199.761 138.189 198.989C139.223 198.227 139.74 196.949 139.74 195.153V190.364H139.433C139.115 191.091 138.638 191.778 138.001 192.426C137.365 193.074 136.547 193.602 135.547 194.011C134.547 194.42 133.354 194.625 131.967 194.625C130.001 194.625 128.212 194.17 126.598 193.261C124.996 192.341 123.717 190.937 122.763 189.051C121.82 187.153 121.348 184.756 121.348 181.858C121.348 178.892 121.831 176.415 122.797 174.426C123.763 172.437 125.047 170.949 126.649 169.96C128.263 168.972 130.03 168.477 131.95 168.477C133.416 168.477 134.643 168.727 135.632 169.227C136.621 169.716 137.416 170.33 138.018 171.068C138.632 171.795 139.104 172.511 139.433 173.216H139.706V168.818H146.916V195.256C146.916 197.483 146.371 199.347 145.28 200.847C144.189 202.347 142.678 203.472 140.746 204.222C138.825 204.983 136.615 205.364 134.115 205.364ZM134.268 189.17C135.439 189.17 136.428 188.881 137.234 188.301C138.053 187.71 138.678 186.869 139.109 185.778C139.553 184.676 139.774 183.358 139.774 181.824C139.774 180.29 139.558 178.96 139.126 177.835C138.695 176.699 138.07 175.818 137.251 175.193C136.433 174.568 135.439 174.256 134.268 174.256C133.075 174.256 132.07 174.58 131.251 175.227C130.433 175.864 129.814 176.75 129.393 177.886C128.973 179.023 128.763 180.335 128.763 181.824C128.763 183.335 128.973 184.642 129.393 185.744C129.825 186.835 130.445 187.682 131.251 188.284C132.07 188.875 133.075 189.17 134.268 189.17ZM193.139 160.091V195H186.764L171.577 173.028H171.321V195H163.94V160.091H170.418L185.486 182.045H185.793V160.091H193.139ZM210.93 195.511C208.283 195.511 205.993 194.949 204.061 193.824C202.141 192.687 200.658 191.108 199.612 189.085C198.567 187.051 198.044 184.693 198.044 182.011C198.044 179.307 198.567 176.943 199.612 174.92C200.658 172.886 202.141 171.307 204.061 170.182C205.993 169.045 208.283 168.477 210.93 168.477C213.578 168.477 215.862 169.045 217.783 170.182C219.714 171.307 221.203 172.886 222.249 174.92C223.294 176.943 223.817 179.307 223.817 182.011C223.817 184.693 223.294 187.051 222.249 189.085C221.203 191.108 219.714 192.687 217.783 193.824C215.862 194.949 213.578 195.511 210.93 195.511ZM210.964 189.886C212.169 189.886 213.175 189.545 213.982 188.864C214.788 188.17 215.396 187.227 215.805 186.034C216.226 184.841 216.436 183.483 216.436 181.96C216.436 180.438 216.226 179.08 215.805 177.886C215.396 176.693 214.788 175.75 213.982 175.057C213.175 174.364 212.169 174.017 210.964 174.017C209.749 174.017 208.726 174.364 207.896 175.057C207.078 175.75 206.459 176.693 206.038 177.886C205.629 179.08 205.425 180.438 205.425 181.96C205.425 183.483 205.629 184.841 206.038 186.034C206.459 187.227 207.078 188.17 207.896 188.864C208.726 189.545 209.749 189.886 210.964 189.886ZM242.464 168.818V174.273H226.697V168.818H242.464ZM230.277 162.545H237.538V186.955C237.538 187.625 237.641 188.148 237.845 188.523C238.05 188.886 238.334 189.142 238.697 189.29C239.072 189.437 239.504 189.511 239.993 189.511C240.334 189.511 240.675 189.483 241.016 189.426C241.357 189.358 241.618 189.307 241.8 189.273L242.942 194.676C242.578 194.79 242.067 194.92 241.408 195.068C240.749 195.227 239.947 195.324 239.004 195.358C237.254 195.426 235.72 195.193 234.402 194.659C233.095 194.125 232.078 193.295 231.351 192.17C230.624 191.045 230.266 189.625 230.277 187.909V162.545ZM264.457 195H256.548L268.599 160.091H278.111L290.145 195H282.236L273.491 168.068H273.219L264.457 195ZM263.963 181.278H282.645V187.04H263.963V181.278ZM315.338 168.818L306.185 195H298.003L288.849 168.818H296.52L301.957 187.551H302.23L307.651 168.818H315.338ZM325.817 195.494C324.146 195.494 322.658 195.205 321.351 194.625C320.044 194.034 319.01 193.165 318.249 192.017C317.499 190.858 317.124 189.415 317.124 187.688C317.124 186.233 317.391 185.011 317.925 184.023C318.459 183.034 319.186 182.239 320.107 181.636C321.027 181.034 322.072 180.58 323.243 180.273C324.425 179.966 325.663 179.75 326.959 179.625C328.482 179.466 329.709 179.318 330.641 179.182C331.572 179.034 332.249 178.818 332.669 178.534C333.089 178.25 333.3 177.83 333.3 177.273V177.17C333.3 176.091 332.959 175.256 332.277 174.665C331.607 174.074 330.652 173.778 329.413 173.778C328.107 173.778 327.067 174.068 326.294 174.648C325.521 175.216 325.01 175.932 324.76 176.795L318.044 176.25C318.385 174.659 319.055 173.284 320.055 172.125C321.055 170.955 322.345 170.057 323.925 169.432C325.516 168.795 327.357 168.477 329.447 168.477C330.902 168.477 332.294 168.648 333.624 168.989C334.964 169.33 336.152 169.858 337.186 170.574C338.232 171.29 339.055 172.21 339.658 173.335C340.26 174.449 340.561 175.784 340.561 177.341V195H333.675V191.369H333.47C333.05 192.188 332.487 192.909 331.783 193.534C331.078 194.148 330.232 194.631 329.243 194.983C328.254 195.324 327.112 195.494 325.817 195.494ZM327.896 190.483C328.964 190.483 329.908 190.273 330.726 189.852C331.544 189.42 332.186 188.841 332.652 188.114C333.118 187.386 333.351 186.562 333.351 185.642V182.864C333.124 183.011 332.811 183.148 332.413 183.273C332.027 183.386 331.589 183.494 331.101 183.597C330.612 183.687 330.124 183.773 329.635 183.852C329.146 183.92 328.703 183.983 328.305 184.04C327.453 184.165 326.709 184.364 326.072 184.636C325.436 184.909 324.942 185.278 324.589 185.744C324.237 186.199 324.061 186.767 324.061 187.449C324.061 188.438 324.419 189.193 325.135 189.716C325.862 190.227 326.783 190.483 327.896 190.483ZM346.195 195V168.818H353.456V195H346.195ZM349.842 165.443C348.763 165.443 347.837 165.085 347.064 164.369C346.303 163.642 345.922 162.773 345.922 161.761C345.922 160.761 346.303 159.903 347.064 159.188C347.837 158.46 348.763 158.097 349.842 158.097C350.922 158.097 351.842 158.46 352.604 159.188C353.376 159.903 353.763 160.761 353.763 161.761C353.763 162.773 353.376 163.642 352.604 164.369C351.842 165.085 350.922 165.443 349.842 165.443ZM366.534 160.091V195H359.273V160.091H366.534ZM379.817 195.494C378.146 195.494 376.658 195.205 375.351 194.625C374.044 194.034 373.01 193.165 372.249 192.017C371.499 190.858 371.124 189.415 371.124 187.688C371.124 186.233 371.391 185.011 371.925 184.023C372.459 183.034 373.186 182.239 374.107 181.636C375.027 181.034 376.072 180.58 377.243 180.273C378.425 179.966 379.663 179.75 380.959 179.625C382.482 179.466 383.709 179.318 384.641 179.182C385.572 179.034 386.249 178.818 386.669 178.534C387.089 178.25 387.3 177.83 387.3 177.273V177.17C387.3 176.091 386.959 175.256 386.277 174.665C385.607 174.074 384.652 173.778 383.413 173.778C382.107 173.778 381.067 174.068 380.294 174.648C379.521 175.216 379.01 175.932 378.76 176.795L372.044 176.25C372.385 174.659 373.055 173.284 374.055 172.125C375.055 170.955 376.345 170.057 377.925 169.432C379.516 168.795 381.357 168.477 383.447 168.477C384.902 168.477 386.294 168.648 387.624 168.989C388.964 169.33 390.152 169.858 391.186 170.574C392.232 171.29 393.055 172.21 393.658 173.335C394.26 174.449 394.561 175.784 394.561 177.341V195H387.675V191.369H387.47C387.05 192.188 386.487 192.909 385.783 193.534C385.078 194.148 384.232 194.631 383.243 194.983C382.254 195.324 381.112 195.494 379.817 195.494ZM381.896 190.483C382.964 190.483 383.908 190.273 384.726 189.852C385.544 189.42 386.186 188.841 386.652 188.114C387.118 187.386 387.351 186.562 387.351 185.642V182.864C387.124 183.011 386.811 183.148 386.413 183.273C386.027 183.386 385.589 183.494 385.101 183.597C384.612 183.687 384.124 183.773 383.635 183.852C383.146 183.92 382.703 183.983 382.305 184.04C381.453 184.165 380.709 184.364 380.072 184.636C379.436 184.909 378.942 185.278 378.589 185.744C378.237 186.199 378.061 186.767 378.061 187.449C378.061 188.438 378.419 189.193 379.135 189.716C379.862 190.227 380.783 190.483 381.896 190.483ZM400.331 195V160.091H407.592V173.216H407.814C408.132 172.511 408.592 171.795 409.195 171.068C409.808 170.33 410.604 169.716 411.581 169.227C412.57 168.727 413.797 168.477 415.263 168.477C417.172 168.477 418.933 168.977 420.547 169.977C422.161 170.966 423.45 172.46 424.416 174.46C425.382 176.449 425.865 178.943 425.865 181.943C425.865 184.864 425.393 187.33 424.45 189.341C423.518 191.341 422.246 192.858 420.632 193.892C419.03 194.915 417.234 195.426 415.246 195.426C413.837 195.426 412.638 195.193 411.649 194.727C410.672 194.261 409.871 193.676 409.246 192.972C408.621 192.256 408.143 191.534 407.814 190.807H407.49V195H400.331ZM407.439 181.909C407.439 183.466 407.655 184.824 408.087 185.983C408.518 187.142 409.143 188.045 409.962 188.693C410.78 189.33 411.774 189.648 412.945 189.648C414.126 189.648 415.126 189.324 415.945 188.676C416.763 188.017 417.382 187.108 417.803 185.949C418.234 184.778 418.45 183.432 418.45 181.909C418.45 180.398 418.24 179.068 417.82 177.92C417.399 176.773 416.78 175.875 415.962 175.227C415.143 174.58 414.138 174.256 412.945 174.256C411.763 174.256 410.763 174.568 409.945 175.193C409.138 175.818 408.518 176.705 408.087 177.852C407.655 179 407.439 180.352 407.439 181.909ZM437.972 160.091V195H430.71V160.091H437.972ZM455.72 195.511C453.027 195.511 450.709 194.966 448.766 193.875C446.834 192.773 445.345 191.216 444.3 189.205C443.254 187.182 442.732 184.79 442.732 182.028C442.732 179.335 443.254 176.972 444.3 174.938C445.345 172.903 446.817 171.318 448.714 170.182C450.624 169.045 452.862 168.477 455.43 168.477C457.158 168.477 458.766 168.756 460.254 169.312C461.754 169.858 463.061 170.682 464.175 171.784C465.3 172.886 466.175 174.273 466.8 175.943C467.425 177.602 467.737 179.545 467.737 181.773V183.767H445.629V179.267H460.902C460.902 178.222 460.675 177.295 460.22 176.489C459.766 175.682 459.135 175.051 458.328 174.597C457.533 174.131 456.607 173.898 455.55 173.898C454.447 173.898 453.47 174.153 452.618 174.665C451.777 175.165 451.118 175.841 450.641 176.693C450.163 177.534 449.919 178.472 449.908 179.506V183.784C449.908 185.08 450.146 186.199 450.624 187.142C451.112 188.085 451.8 188.812 452.686 189.324C453.572 189.835 454.624 190.091 455.839 190.091C456.646 190.091 457.385 189.977 458.055 189.75C458.726 189.523 459.3 189.182 459.777 188.727C460.254 188.273 460.618 187.716 460.868 187.057L467.584 187.5C467.243 189.114 466.544 190.523 465.487 191.727C464.442 192.92 463.089 193.852 461.43 194.523C459.783 195.182 457.879 195.511 455.72 195.511Z" fill="white"/>
</svg>
